#!OML:ASF F:\VICON\USERDATA\INSTALL\rory3\rory3.ASF
:FULLY-SPECIFIED
:DEGREES
19
root -0.4844749058752501 18.37229007393141 -16.94369062605789 4.279486574647751 6.79008780750004 -3.0734750609521018
lfemur -39.821287247502156 -6.52977503416326 -17.462405842769794
ltibia 54.9098004487591
lfoot -0.17070497882816182 -5.47096589802035
ltoes -17.27779158690295
rfemur 11.074284955811578 2.892708366582492 33.78229283737117
rtibia 31.015409637542522
rfoot 17.597591983315336 -7.0694798299035915
rtoes -9.064132497668545
lowerback 11.898812747927781 1.5532901327779896 4.970349539850662
upperback -1.3770336610730096 2.947439387436857 1.8142371109090187
thorax -8.010720504072204 1.2533894253756865 -1.415350384301445
lowerneck -16.570814017342784 -6.113345249264812 -1.9988249808532137
upperneck 15.764383983952644 -8.097116527382076 1.2708680603746383
head 7.716879446064894 -3.8506043122010416 -0.18480876513200029
lclavicle -6.477656811165328e-16 -4.8606873629162415e-15
lhumerus -67.23548724056545 -7.878910382710799 98.21299571138717
lradius 103.38400904322617
lwrist 29.555099953349927
lhand -32.9394953968086 -0.24947649763892785
lfingers 7.125019999999998
lthumb -6.155845471812706 29.641101555827703
rclavicle -6.477656811165328e-16 -4.8606873629162415e-15
rhumerus -44.04030698297533 14.355293402295882 -97.42380419312757
rradius 124.49698605572587
rwrist -15.54649622002402
rhand -16.673109094933984 46.900780720203876
rfingers 7.125019999999998
rthumb 9.5507109964823 17.137280432985477
20
root -0.4514169894851202 18.53618747911476 -15.831490697582677 4.067707724224114 7.330526596014835 -2.7343363895304535
lfemur -37.366288836560074 -7.582652564061549 -18.03140513806764
ltibia 43.794104544468624
lfoot -0.7240517822552879 -6.990443901671297
ltoes -22.341887742617534
rfemur 13.473485540117906 3.643976907763422 33.59009311184525
rtibia 30.836509675018966
rfoot 24.185087098050804 -6.572690709328346
rtoes 0.9370340010612752
lowerback 11.83601310342205 1.616909508987936 5.277918691827725
upperback -1.7511096106987152 3.0586488126458597 1.4095902461852907
thorax -8.335727646184194 1.2680092659098188 -2.0414773550828507
lowerneck -16.388914779447294 -6.15459507814412 -1.9077867165440476
upperneck 16.668380248909358 -8.219775881699414 1.329027665103199
head 7.986755727564396 -3.8876439560776506 -0.20647745254274652
lclavicle -6.477657615146672e-16 -4.860687333305775e-15
lhumerus -69.30288646699685 -6.548523029077864 96.89720046358559
lradius 104.16200783211231
lwrist 30.977298578871633
lhand -34.64128942782764 0.9493244264846032
lfingers 7.125019999999998
lthumb -7.79859963670903 30.78549767631293
rclavicle -6.477657615146672e-16 -4.860687333305775e-15
rhumerus -45.75680486624924 14.971791856898603 -98.28600211321242
rradius 125.73398472950126
rwrist -17.347892117181107
rhand -14.087021448651365 60.120655690665934
rfingers 7.125019999999998
rthumb 12.045178565923745 30.48725316720826
21
root -0.4634438294871179 18.64499821966135 -14.35083272782559 4.002058152483762 7.231276297520102 -2.7960201593723664
lfemur -35.70713510021254 -6.110715206348738 -17.608441457614163
ltibia 34.81655153063563
lfoot 4.897234824105648 -10.441078127373276
ltoes -13.207758715367163
rfemur 12.863070227558104 5.51423602550171 35.070574165168516
rtibia 34.67167709536491
rfoot 27.526085308404014 -5.3950993833210035
rtoes 9.68459444121877
lowerback 11.999728540824588 1.7856753743828517 4.57371982509683
upperback -1.9398012007623011 3.1746619747714013 0.9271834676515147
thorax -7.028655341046214 1.3377358863380795 -2.6090817921410823
lowerneck -16.598807215340727 -5.83051968018019 -2.23474947686272
upperneck 16.914774140066413 -7.6844567496199065 1.7116610047134264
head 8.658198938729594 -3.5201186866539316 -0.16383616610490614
lclavicle -6.509142272636193e-16 -4.862912681269111e-15
lhumerus -69.73824422806136 -6.432024179493647 96.28235990680118
lradius 106.05238528136263
lwrist 27.639137256584736
lhand -33.47879101832035 0.6964784159022683
lfingers 7.125019999999998
lthumb -7.284661069081357 30.321061236688628
rclavicle -6.551520699971139e-16 -4.864391287120865e-15
rhumerus -46.978749684679705 17.462280570497608 -99.81287479555147
rradius 127.79398937118354
rwrist -13.054368040529168
rhand -18.702395308213053 36.335228944785534
rfingers 7.125019999999998
rthumb 17.301654751080108 27.089822829337884
22
root -0.4613019790352889 18.690509321844914 -13.28494163900055 4.262086532913851 6.690912005724038 -2.8309818222982686
lfemur -34.65045537857245 -4.779669404609503 -17.833130504716873
ltibia 27.777493306027665
lfoot 11.513257723440367 -13.63885943562651
ltoes -8.873116422650758
rfemur 11.925085569406185 6.927481869695349 35.76383221228799
rtibia 41.35433921638433
rfoot 27.21892665995463 -4.520560079281945
rtoes 17.2675917373275
lowerback 11.423956710807671 1.9666914233219925 4.480076703896351
upperback -1.7822828322674722 3.4273053056226264 0.8055555290625241
thorax -6.879371861109719 1.4379833793512489 -2.56501882207186
lowerneck -17.062436942928475 -5.747896828138488 -2.381471894734229
upperneck 17.383419497750758 -7.503469835408225 2.0527198960448794
head 9.097025873029857 -3.396783321982161 0.04131393162964547
lclavicle -6.465389470597766e-16 -4.859818521392329e-15
lhumerus -69.77602245116044 -7.048181341101302 96.05204699362358
lradius 108.25217571713773
lwrist 23.409443737913882
lhand -32.487488728661134 0.35385525721556343
lfingers 7.125019999999998
lthumb -6.618959112047403 29.884834193013436
rclavicle -6.506040489556571e-16 -4.8612927295268255e-15
rhumerus -48.144856467277606 19.28797524640435 -100.92596501741441
rradius 129.17636114976716
rwrist -10.390072232656845
rhand -16.52830880161678 37.10566856544477
rfingers 7.125019999999998
rthumb 15.206434623155658 24.626834031638076
23
root -0.46454690048869934 18.675659742634313 -12.027765696277608 4.275162797050556 5.4924322062102915 -3.379757509753163
lfemur -33.744933753393596 -3.170868294093322 -17.83874853066422
ltibia 23.14692170561443
lfoot 16.682068731347886 -16.198002909784933
ltoes -5.908731688323378
rfemur 11.078302196663877 8.106884520823037 36.6405618371453
rtibia 48.6918962114551
rfoot 25.576074555347873 -4.645527329048182
rtoes 19.896024180726794
lowerback 11.043896646037508 2.1511809169435363 4.717121116415916
upperback -1.456911015122281 3.6460370732039595 0.8670816571975477
thorax -6.510683415106662 1.510517818120171 -2.1807148340424374
lowerneck -17.5164366199276 -5.587771146927425 -2.5656693664175374
upperneck 17.167060417530855 -7.237957900466471 2.2814880644583266
head 9.15496331058341 -3.2857668298974327 0.22055476591384854
lclavicle -6.465152803401805e-16 -4.859802724563285e-15
lhumerus -69.30231446472277 -7.9837508481296915 96.18717295665712
lradius 110.50749199516225
lwrist 19.002958465141788
lhand -31.980186235639504 -0.2941900185292988
lfingers 7.125019999999998
lthumb -6.052475723218345 29.23602092757718
rclavicle -6.50554060721562e-16 -4.86144935208776e-15
rhumerus -49.05748210643642 20.434987334227085 -101.28789943395569
rradius 130.0218119988715
rwrist -9.621415231864603
rhand -17.93367525583028 37.23673190541339
rfingers 7.125019999999998
rthumb 11.426449742701664 17.367715676293443
24
root -0.4694413390495934 18.632816684737335 -10.997608841048404 3.7799431685420593 5.209603296049714 -3.5038572833100474
lfemur -32.66526306677475 -1.9121455634992244 -18.497629009021495
ltibia 21.270136781021712
lfoot 18.703630136028636 -18.772631426330683
ltoes -9.681635285423168
rfemur 9.70796305870298 7.6512540233690585 36.58837733825071
rtibia 56.29493442757173
rfoot 23.938328486452953 -5.501795820134323
rtoes 18.75789541047539
lowerback 11.67172850827216 2.178600912260787 4.6941828987201255
upperback -1.1229447583614771 3.669552406646363 0.9394675933567687
thorax -6.42787157070675 1.6103206109525743 -2.039461822926929
lowerneck -17.656794386673404 -5.444656865682765 -2.664143754009906
upperneck 16.195961849384943 -7.017479294358131 2.6203519614281006
head 8.825998048535071 -3.223428950590344 0.5042002972879048
lclavicle -6.433864708420512e-16 -4.857590755774476e-15
lhumerus -68.17947579048834 -8.992251577101634 96.54452372197642
lradius 112.13286119247526
lwrist 15.809163013306923
lhand -31.306709998871604 -1.0459737599618468
lfingers 7.125019999999998
lthumb -5.221819649565963 28.54228846720395
rclavicle -6.528316071998987e-16 -4.863359266958352e-15
rhumerus -49.8669012365154 20.596217049846818 -101.03444301929729
rradius 129.84962669782223
rwrist -9.50323629185036
rhand -18.41678681348091 36.260816657354454
rfingers 7.125019999999998
rthumb 8.885241644339999 12.061082415626458
25
root -0.49593378340220085 18.526017784729557 -9.776102467846464 2.8938218458839784 5.6053268060065795 -3.4409522876296146
lfemur -31.635060228480526 -1.0538828212930267 -19.26221763717264
ltibia 21.95973228601443
lfoot 17.780105922139807 -20.89759905197296
ltoes -14.607469382079362
rfemur 7.863382748863916 6.203088015429819 35.82814174858977
rtibia 64.41021685560165
rfoot 22.89082215743265 -6.474568111885798
rtoes 17.22469194172135
lowerback 12.824521810925527 2.0952304536052533 4.434801356981047
upperback -0.8539777396288116 3.5743734848439193 0.9786970258090677
thorax -6.457761661579819 1.5960461894050861 -2.027844832543924
lowerneck -17.87363187502497 -5.3241923805599605 -2.6367469014968634
upperneck 15.446629452462002 -6.935611353188653 2.9359710817534617
head 8.522084285889449 -3.165501499313038 0.7455729972770426
lclavicle -6.468665928718851e-16 -4.860051003176455e-15
lhumerus -66.67720597904315 -10.128912989711992 97.12756373949453
lradius 113.26267397472806
lwrist 15.01413470038038
lhand -30.9406375742893 -1.2911546605516584
lfingers 7.125019999999998
lthumb -4.835611858229694 28.48910153044838
rclavicle -6.50201839517456e-16 -4.861440598612582e-15
rhumerus -50.674457165778 20.045062351744498 -100.76828037566014
rradius 129.52297936189905
rwrist -9.663252601395982
rhand -18.281376631429367 35.77896959404971
rfingers 7.125019999999998
rthumb 8.324365253598984 10.1453761068954
